

Dragonball Evolution  

BRRip 720p x264 

[Dual Audio] [English 6CH + Hindi 6CH ] 

(2009)

*Sample Included*

[img]http://img135.imageshack.us/img135/4632/screensx.png[/img]
[img]http://stpicz.com/5250_1_a7he.png[/img]
[img]http://stpicz.com/7943_20_309e.png[/img]
[img]http://stpicz.com/3319_18_579p.png[/img]
[img]http://stpicz.com/1081_15_shc4.png[/img]
[img]http://stpicz.com/0862_16_1ti0.png[/img]
[img]http://stpicz.com/5424_17_ziy1.png[/img]
[img]http://stpicz.com/7380_14_sk6y.png[/img]
[img]http://stpicz.com/9475_12_czj9.png[/img]
[img]http://stpicz.com/5725_11_7o5q.png[/img]
[img]http://stpicz.com/5281_10_ttek.png[/img]
[img]http://stpicz.com/3985_9_mnsv.png[/img]
[img]http://stpicz.com/1639_7_atps.png[/img]
[img]http://stpicz.com/9672_8_18qi.png[/img]
[img]http://stpicz.com/3045_6_2l0j.png[/img]
[img]http://stpicz.com/4874_5_2f1z.png[/img]
[img]http://stpicz.com/1725_4_82ng.png[/img]
[img]http://stpicz.com/0941_13_rgys.png[/img]
[img]http://stpicz.com/2532_19_7s7f.png[/img]
[img]http://stpicz.com/8590_2_mdjh.png[/img]
[img]http://stpicz.com/0883_3_u6wc.png[/img]
[img]http://stpicz.com/1058_21_v87x.png[/img]

[img]http://img25.imageshack.us/img25/1622/release.png[/img]

Release Title: Dragonball Evolution (2009) BrRip 720p [Dual Audio] [Hindi 6CH -English 6CH] JaGatJeetSanDhu
Encode date: UTC 2013-04-13 09:32:17

[img]http://img94.imageshack.us/img94/5827/imdbn.png[/img]

IMDB:- [url]www.imdb.com/title/tt1098327/[/url]

TMDB:- [url]http://www.themoviedb.org/movie/14164[/url]

[img]http://img822.imageshack.us/img822/9930/castb.png[/img]

	 Justin Chatwin	 ...	
Goku
	 Yun-Fat Chow	 ...	
Roshi
	 Emmy Rossum	 ...	
Bulma
	 Jamie Chung	 ...	
Chi Chi
	 James Marsters	 ...	
Lord Piccolo
	 Joon Park	 ...	
Yamcha
	 Eriko Tamura	 ...	
Mai (as Eriko)
	 Randall Duk Kim	 ...	
Gohan
	 Ernie Hudson	 ...	
Sifu Norris
	 Texas Battle	 ...	
Carey Fuller
	 Megumi Seki	 ...	
Seki
	 Ian Whyte	 ...	
Oozaru
	 Richard Blake	 ...	
Agundes
	 Jon Valera	 ...	
Moreno
	 Rafael Valdez	 ...	
Butler

[img]http://img215.imageshack.us/img215/7582/generalob.png[/img]
Complete name                            : Dragonball Evolution (2009) BrRip 720p [Dual Audio] [Hindi 6CH -English 6CH] JaGatJeetSanDhu.mp4
Format                                   : Matroska
File size                                : 978 MiB
Duration                                 : 1h 25mn
Overall bit rate                         : 1 601 Kbps
Movie name                               : DraGonBaLL Evolution - JaGatJeetSanDhu
Sample                                     : Included
Subtitles                                   : Included

[img]http://img121.imageshack.us/img121/47/videoem.png[/img]

ID                                       : 1
Format                                   : AVC
Format/Info                              : Advanced Video Codec
Format profile                           : High@L3.1
Format settings, CABAC                   : Yes
Format settings, ReFrames                : 4 frames
Codec ID                                 : V_MPEG4/ISO/AVC
Duration                                 : 1h 25mn
Bit rate                                 : 831 Kbps
Width                                    : 1 280 pixels
Height                                   : 544 pixels
Display aspect ratio                     : 2.35:1
Frame rate mode                          : Constant
Frame rate                               : 23.976 fps
Color space                              : YUV
Chroma subsampling                       : 4:2:0
Bit depth                                : 8 bits
Scan type                                : Progressive
Bits/(Pixel*Frame)                       : 0.050
Stream size                              : 489 MiB (50%)
Title                                    : DraGonBaLL Evolution - JaGatJeetSanDhu
Writing library                          : x264 
Language                                 : Hindi
Default                                  : Yes
Forced                                   : No

[img]http://img171.imageshack.us/img171/6878/audiok.png[/img]
ID                                       : 2
Format                                   : AC-3
Format/Info                              : Audio Coding 3
Mode extension                           : CM (complete main)
Format settings, Endianness              : Big
Codec ID                                 : A_AC3
Duration                                 : 1h 25mn
Bit rate mode                            : Constant
Bit rate                                 : 384 Kbps
Channel(s)                               : 6 channels
Channel positions                        : Front: L C R, Side: L R, LFE
Sampling rate                            : 48.0 KHz
Bit depth                                : 16 bits
Compression mode                         : Lossy
Stream size                              : 235 MiB (24%)
Title                                    : DraGonBaLL - JaGatJeetSanDhu
Language                                 : Hindi
Default                                  : Yes
Forced                                   : No

[img]http://img171.imageshack.us/img171/6878/audiok.png[/img]
ID                                       : 3
Format                                   : AC-3
Format/Info                              : Audio Coding 3
Mode extension                           : CM (complete main)
Format settings, Endianness              : Big
Codec ID                                 : A_AC3
Duration                                 : 1h 25mn
Bit rate mode                            : Constant
Bit rate                                 : 384 Kbps
Channel(s)                               : 6 channels
Channel positions                        : Front: L C R, Side: L R, LFE
Sampling rate                            : 48.0 KHz
Bit depth                                : 16 bits
Compression mode                         : Lossy
Stream size                              : 235 MiB (24%)
Title                                    : DraGonBaLL - JaGatJeetSanDhu
Language                                 : English
Default                                  : No
Forced                                   : No

[img]http://img52.imageshack.us/img52/122/commentsrappreciated.gif[/img]
[img]http://img519.imageshack.us/img519/5605/ifacuh.gif[/img]
[img]http://img832.imageshack.us/img832/8647/jfkpd3jpg.gif[/img]
[img]http://img251.imageshack.us/img251/8343/vh6wpgth.gif[/img]
[img]http://img195.imageshack.us/img195/2484/thankyoupl.jpg[/img]
Check the Sample First